<mxfile host="app.diagrams.net" agent="Mozilla/5.0 (Windows NT 10.0; Win64; x64) AppleWebKit/537.36 (KHTML, like Gecko) Chrome/132.0.0.0 Safari/537.36" version="26.0.10">
  <diagram name="Page-1" id="_CgcnXysdZRglFgv9Wjz">
    <mxGraphModel dx="1235" dy="655" grid="1" gridSize="10" guides="1" tooltips="1" connect="1" arrows="1" fold="1" page="1" pageScale="1" pageWidth="827" pageHeight="1169" math="0" shadow="0">
      <root>
        <mxCell id="0" />
        <mxCell id="1" parent="0" />
        <mxCell id="o0TZDgzU0QpvcHvQ-COg-1" value="Sensors&amp;nbsp;" style="whiteSpace=wrap;html=1;aspect=fixed;fillColor=#d5e8d4;strokeColor=#82b366;" parent="1" vertex="1">
          <mxGeometry x="200" y="360" width="80" height="80" as="geometry" />
        </mxCell>
        <mxCell id="o0TZDgzU0QpvcHvQ-COg-2" value="" style="endArrow=classic;html=1;rounded=0;fillColor=#d5e8d4;strokeColor=#82b366;" parent="1" edge="1">
          <mxGeometry width="50" height="50" relative="1" as="geometry">
            <mxPoint x="110" y="400" as="sourcePoint" />
            <mxPoint x="200" y="400" as="targetPoint" />
          </mxGeometry>
        </mxCell>
        <mxCell id="o0TZDgzU0QpvcHvQ-COg-12" value="" style="edgeStyle=orthogonalEdgeStyle;rounded=0;orthogonalLoop=1;jettySize=auto;html=1;entryX=0;entryY=0.5;entryDx=0;entryDy=0;fillColor=#f5f5f5;strokeColor=#666666;" parent="1" source="o0TZDgzU0QpvcHvQ-COg-7" target="o0TZDgzU0QpvcHvQ-COg-14" edge="1">
          <mxGeometry relative="1" as="geometry">
            <mxPoint x="520" y="520" as="targetPoint" />
          </mxGeometry>
        </mxCell>
        <mxCell id="o0TZDgzU0QpvcHvQ-COg-16" value="&lt;font style=&quot;font-size: 9px;&quot;&gt;Data over LTE Network&lt;/font&gt;" style="edgeLabel;html=1;align=center;verticalAlign=middle;resizable=0;points=[];" parent="o0TZDgzU0QpvcHvQ-COg-12" vertex="1" connectable="0">
          <mxGeometry x="0.3788" y="-2" relative="1" as="geometry">
            <mxPoint x="-26" y="-22" as="offset" />
          </mxGeometry>
        </mxCell>
        <mxCell id="o0TZDgzU0QpvcHvQ-COg-7" value="4G LTE Module" style="whiteSpace=wrap;html=1;aspect=fixed;fillColor=#f5f5f5;fontColor=#333333;strokeColor=#666666;" parent="1" vertex="1">
          <mxGeometry x="360" y="480" width="80" height="80" as="geometry" />
        </mxCell>
        <mxCell id="o0TZDgzU0QpvcHvQ-COg-14" value="Server/PC" style="whiteSpace=wrap;html=1;aspect=fixed;fillColor=#f5f5f5;fontColor=#333333;strokeColor=#666666;" parent="1" vertex="1">
          <mxGeometry x="550" y="480" width="80" height="80" as="geometry" />
        </mxCell>
        <mxCell id="o0TZDgzU0QpvcHvQ-COg-19" value="Collects data&amp;nbsp;" style="text;html=1;align=center;verticalAlign=middle;resizable=0;points=[];autosize=1;strokeColor=none;fillColor=none;" parent="1" vertex="1">
          <mxGeometry x="100" y="360" width="100" height="30" as="geometry" />
        </mxCell>
        <mxCell id="o0TZDgzU0QpvcHvQ-COg-20" value="Environnements" style="ellipse;shape=cloud;whiteSpace=wrap;html=1;fillColor=#d5e8d4;strokeColor=#82b366;" parent="1" vertex="1">
          <mxGeometry y="360" width="120" height="80" as="geometry" />
        </mxCell>
        <mxCell id="7V-LlwSGDgWQLr9LBslq-5" style="edgeStyle=orthogonalEdgeStyle;rounded=0;orthogonalLoop=1;jettySize=auto;html=1;exitX=0.5;exitY=1;exitDx=0;exitDy=0;entryX=0;entryY=0.25;entryDx=0;entryDy=0;fillColor=#fff2cc;strokeColor=#d6b656;" parent="1" source="o0TZDgzU0QpvcHvQ-COg-21" edge="1">
          <mxGeometry relative="1" as="geometry">
            <mxPoint x="250" y="180" as="sourcePoint" />
            <mxPoint x="373.9999999999998" y="210" as="targetPoint" />
            <Array as="points">
              <mxPoint x="230" y="210" />
            </Array>
          </mxGeometry>
        </mxCell>
        <mxCell id="7V-LlwSGDgWQLr9LBslq-10" value="Battery Output" style="edgeLabel;html=1;align=center;verticalAlign=middle;resizable=0;points=[];" parent="7V-LlwSGDgWQLr9LBslq-5" vertex="1" connectable="0">
          <mxGeometry x="-0.2862" y="-2" relative="1" as="geometry">
            <mxPoint x="11" y="18" as="offset" />
          </mxGeometry>
        </mxCell>
        <mxCell id="o0TZDgzU0QpvcHvQ-COg-21" value="Batterie" style="whiteSpace=wrap;html=1;aspect=fixed;fillColor=#fff2cc;strokeColor=#d6b656;" parent="1" vertex="1">
          <mxGeometry x="190" y="80" width="80" height="80" as="geometry" />
        </mxCell>
        <mxCell id="o0TZDgzU0QpvcHvQ-COg-22" value="Panneau solaire" style="whiteSpace=wrap;html=1;aspect=fixed;fillColor=#fff2cc;strokeColor=#d6b656;" parent="1" vertex="1">
          <mxGeometry x="550" y="70" width="80" height="80" as="geometry" />
        </mxCell>
        <mxCell id="o0TZDgzU0QpvcHvQ-COg-30" value="Observer" style="shape=umlActor;verticalLabelPosition=bottom;verticalAlign=top;html=1;outlineConnect=0;fillColor=#f5f5f5;fontColor=#333333;strokeColor=#666666;" parent="1" vertex="1">
          <mxGeometry x="710" y="490" width="30" height="60" as="geometry" />
        </mxCell>
        <mxCell id="o0TZDgzU0QpvcHvQ-COg-42" value="" style="endArrow=classic;html=1;rounded=0;entryX=0.108;entryY=0.038;entryDx=0;entryDy=0;entryPerimeter=0;exitX=0.88;exitY=0.25;exitDx=0;exitDy=0;exitPerimeter=0;fillColor=#d5e8d4;strokeColor=#82b366;" parent="1" edge="1">
          <mxGeometry width="50" height="50" relative="1" as="geometry">
            <mxPoint x="70.60000000000014" y="370" as="sourcePoint" />
            <mxPoint x="588.6400000000001" y="73.04000000000002" as="targetPoint" />
            <Array as="points">
              <mxPoint x="70" y="33.28" />
              <mxPoint x="480" y="33.28" />
              <mxPoint x="589" y="33" />
            </Array>
          </mxGeometry>
        </mxCell>
        <mxCell id="o0TZDgzU0QpvcHvQ-COg-45" value="sunlight is available" style="edgeLabel;html=1;align=center;verticalAlign=middle;resizable=0;points=[];" parent="o0TZDgzU0QpvcHvQ-COg-42" vertex="1" connectable="0">
          <mxGeometry x="0.2272" y="6" relative="1" as="geometry">
            <mxPoint as="offset" />
          </mxGeometry>
        </mxCell>
        <mxCell id="o0TZDgzU0QpvcHvQ-COg-43" value="" style="endArrow=classic;html=1;rounded=0;entryX=0;entryY=0.25;entryDx=0;entryDy=0;exitX=0.169;exitY=0.971;exitDx=0;exitDy=0;exitPerimeter=0;fillColor=#f5f5f5;strokeColor=#666666;" parent="1" target="o0TZDgzU0QpvcHvQ-COg-7" edge="1">
          <mxGeometry width="50" height="50" relative="1" as="geometry">
            <mxPoint x="354.28" y="437.67999999999995" as="sourcePoint" />
            <mxPoint x="370" y="400" as="targetPoint" />
            <Array as="points">
              <mxPoint x="340" y="438" />
              <mxPoint x="340" y="480" />
            </Array>
          </mxGeometry>
        </mxCell>
        <mxCell id="o0TZDgzU0QpvcHvQ-COg-44" value="Transmission des donnÃ©es" style="edgeLabel;html=1;align=center;verticalAlign=middle;resizable=0;points=[];" parent="o0TZDgzU0QpvcHvQ-COg-43" vertex="1" connectable="0">
          <mxGeometry x="0.0147" relative="1" as="geometry">
            <mxPoint x="-20" as="offset" />
          </mxGeometry>
        </mxCell>
        <mxCell id="o0TZDgzU0QpvcHvQ-COg-49" value="" style="endArrow=classic;html=1;rounded=0;exitX=1;exitY=0.5;exitDx=0;exitDy=0;fillColor=#f5f5f5;strokeColor=#666666;" parent="1" source="o0TZDgzU0QpvcHvQ-COg-14" target="o0TZDgzU0QpvcHvQ-COg-30" edge="1">
          <mxGeometry width="50" height="50" relative="1" as="geometry">
            <mxPoint x="540" y="500" as="sourcePoint" />
            <mxPoint x="590" y="450" as="targetPoint" />
          </mxGeometry>
        </mxCell>
        <mxCell id="o0TZDgzU0QpvcHvQ-COg-50" value="&lt;font style=&quot;font-size: 9px;&quot;&gt;Data Visualization&lt;/font&gt;" style="edgeLabel;html=1;align=center;verticalAlign=middle;resizable=0;points=[];" parent="o0TZDgzU0QpvcHvQ-COg-49" vertex="1" connectable="0">
          <mxGeometry x="-0.3125" relative="1" as="geometry">
            <mxPoint x="13" y="-20" as="offset" />
          </mxGeometry>
        </mxCell>
        <mxCell id="o0TZDgzU0QpvcHvQ-COg-52" value="" style="endArrow=none;dashed=1;html=1;dashPattern=1 3;strokeWidth=2;rounded=0;" parent="1" edge="1">
          <mxGeometry width="50" height="50" relative="1" as="geometry">
            <mxPoint x="290" y="620" as="sourcePoint" />
            <mxPoint x="290" y="440" as="targetPoint" />
          </mxGeometry>
        </mxCell>
        <mxCell id="o0TZDgzU0QpvcHvQ-COg-53" value="" style="endArrow=none;dashed=1;html=1;dashPattern=1 3;strokeWidth=2;rounded=0;" parent="1" edge="1">
          <mxGeometry width="50" height="50" relative="1" as="geometry">
            <mxPoint x="290" y="440" as="sourcePoint" />
            <mxPoint x="790" y="440" as="targetPoint" />
          </mxGeometry>
        </mxCell>
        <mxCell id="o0TZDgzU0QpvcHvQ-COg-54" value="" style="endArrow=none;dashed=1;html=1;dashPattern=1 3;strokeWidth=2;rounded=0;" parent="1" edge="1">
          <mxGeometry width="50" height="50" relative="1" as="geometry">
            <mxPoint x="290" y="620" as="sourcePoint" />
            <mxPoint x="790" y="620" as="targetPoint" />
          </mxGeometry>
        </mxCell>
        <mxCell id="o0TZDgzU0QpvcHvQ-COg-55" value="" style="endArrow=none;dashed=1;html=1;dashPattern=1 3;strokeWidth=2;rounded=0;" parent="1" edge="1">
          <mxGeometry width="50" height="50" relative="1" as="geometry">
            <mxPoint x="790" y="620" as="sourcePoint" />
            <mxPoint x="790" y="440" as="targetPoint" />
          </mxGeometry>
        </mxCell>
        <mxCell id="o0TZDgzU0QpvcHvQ-COg-58" value="" style="endArrow=none;dashed=1;html=1;dashPattern=1 3;strokeWidth=2;rounded=0;" parent="1" edge="1">
          <mxGeometry width="50" height="50" relative="1" as="geometry">
            <mxPoint x="180" y="460" as="sourcePoint" />
            <mxPoint x="180" y="330" as="targetPoint" />
          </mxGeometry>
        </mxCell>
        <mxCell id="o0TZDgzU0QpvcHvQ-COg-59" value="" style="endArrow=none;dashed=1;html=1;dashPattern=1 3;strokeWidth=2;rounded=0;" parent="1" edge="1">
          <mxGeometry width="50" height="50" relative="1" as="geometry">
            <mxPoint x="180" y="330" as="sourcePoint" />
            <mxPoint x="290" y="330" as="targetPoint" />
          </mxGeometry>
        </mxCell>
        <mxCell id="o0TZDgzU0QpvcHvQ-COg-60" value="" style="endArrow=none;dashed=1;html=1;dashPattern=1 3;strokeWidth=2;rounded=0;" parent="1" edge="1">
          <mxGeometry width="50" height="50" relative="1" as="geometry">
            <mxPoint x="180" y="460" as="sourcePoint" />
            <mxPoint x="300" y="460" as="targetPoint" />
          </mxGeometry>
        </mxCell>
        <mxCell id="o0TZDgzU0QpvcHvQ-COg-61" value="" style="endArrow=none;dashed=1;html=1;dashPattern=1 3;strokeWidth=2;rounded=0;" parent="1" edge="1">
          <mxGeometry width="50" height="50" relative="1" as="geometry">
            <mxPoint x="340" y="330" as="sourcePoint" />
            <mxPoint x="340" y="470" as="targetPoint" />
          </mxGeometry>
        </mxCell>
        <mxCell id="o0TZDgzU0QpvcHvQ-COg-62" value="" style="endArrow=none;dashed=1;html=1;dashPattern=1 3;strokeWidth=2;rounded=0;" parent="1" edge="1">
          <mxGeometry width="50" height="50" relative="1" as="geometry">
            <mxPoint x="290" y="330" as="sourcePoint" />
            <mxPoint x="300" y="330" as="targetPoint" />
          </mxGeometry>
        </mxCell>
        <mxCell id="o0TZDgzU0QpvcHvQ-COg-63" value="" style="endArrow=none;dashed=1;html=1;dashPattern=1 3;strokeWidth=2;rounded=0;" parent="1" edge="1">
          <mxGeometry width="50" height="50" relative="1" as="geometry">
            <mxPoint x="300" y="330" as="sourcePoint" />
            <mxPoint x="340" y="330" as="targetPoint" />
          </mxGeometry>
        </mxCell>
        <mxCell id="o0TZDgzU0QpvcHvQ-COg-64" value="" style="endArrow=none;dashed=1;html=1;dashPattern=1 3;strokeWidth=2;rounded=0;" parent="1" edge="1">
          <mxGeometry width="50" height="50" relative="1" as="geometry">
            <mxPoint x="290" y="460" as="sourcePoint" />
            <mxPoint x="340" y="460" as="targetPoint" />
          </mxGeometry>
        </mxCell>
        <mxCell id="o0TZDgzU0QpvcHvQ-COg-65" value="&lt;b&gt;Transmettre les donnÃ©es Ã  distance et les afficher&lt;/b&gt;" style="text;html=1;align=center;verticalAlign=middle;whiteSpace=wrap;rounded=0;" parent="1" vertex="1">
          <mxGeometry x="520" y="400" width="190" height="30" as="geometry" />
        </mxCell>
        <mxCell id="o0TZDgzU0QpvcHvQ-COg-66" value="&lt;b&gt;&lt;font style=&quot;font-size: 12px;&quot;&gt;Collecter les donnÃ©es des capteurs&lt;/font&gt;&lt;/b&gt;" style="text;html=1;align=center;verticalAlign=middle;whiteSpace=wrap;rounded=0;" parent="1" vertex="1">
          <mxGeometry x="165" y="290" width="150" height="30" as="geometry" />
        </mxCell>
        <mxCell id="7V-LlwSGDgWQLr9LBslq-7" style="edgeStyle=orthogonalEdgeStyle;rounded=0;orthogonalLoop=1;jettySize=auto;html=1;exitX=0.5;exitY=1;exitDx=0;exitDy=0;entryX=0.75;entryY=0;entryDx=0;entryDy=0;fillColor=#fff2cc;strokeColor=#d6b656;" parent="1" source="7V-LlwSGDgWQLr9LBslq-1" target="21D40MH8CYop7TzDMXVV-1" edge="1">
          <mxGeometry relative="1" as="geometry">
            <Array as="points">
              <mxPoint x="415" y="250" />
              <mxPoint x="415" y="330" />
              <mxPoint x="410" y="330" />
            </Array>
            <mxPoint x="409" y="360" as="targetPoint" />
          </mxGeometry>
        </mxCell>
        <mxCell id="7V-LlwSGDgWQLr9LBslq-11" value="Regulated Power Supply" style="edgeLabel;html=1;align=center;verticalAlign=middle;resizable=0;points=[];" parent="7V-LlwSGDgWQLr9LBslq-7" vertex="1" connectable="0">
          <mxGeometry x="-0.1742" relative="1" as="geometry">
            <mxPoint as="offset" />
          </mxGeometry>
        </mxCell>
        <mxCell id="7V-LlwSGDgWQLr9LBslq-1" value="RÃ©gulateur de tension&amp;nbsp;" style="whiteSpace=wrap;html=1;aspect=fixed;fillColor=#fff2cc;strokeColor=#d6b656;" parent="1" vertex="1">
          <mxGeometry x="374" y="170" width="80" height="80" as="geometry" />
        </mxCell>
        <mxCell id="7V-LlwSGDgWQLr9LBslq-4" style="edgeStyle=orthogonalEdgeStyle;rounded=0;orthogonalLoop=1;jettySize=auto;html=1;exitX=0;exitY=0.25;exitDx=0;exitDy=0;entryX=1;entryY=0.25;entryDx=0;entryDy=0;fillColor=#fff2cc;strokeColor=#d6b656;" parent="1" edge="1">
          <mxGeometry relative="1" as="geometry">
            <mxPoint x="374" y="119.7" as="sourcePoint" />
            <mxPoint x="270" y="119.7" as="targetPoint" />
          </mxGeometry>
        </mxCell>
        <mxCell id="7V-LlwSGDgWQLr9LBslq-9" value="Battery Charging" style="edgeLabel;html=1;align=center;verticalAlign=middle;resizable=0;points=[];" parent="7V-LlwSGDgWQLr9LBslq-4" vertex="1" connectable="0">
          <mxGeometry x="0.126" y="2" relative="1" as="geometry">
            <mxPoint x="15" y="-12" as="offset" />
          </mxGeometry>
        </mxCell>
        <mxCell id="7V-LlwSGDgWQLr9LBslq-2" value="RÃ©gulateur&lt;div&gt;&amp;nbsp;&lt;span style=&quot;background-color: initial;&quot;&gt;mppt&lt;/span&gt;&lt;/div&gt;" style="whiteSpace=wrap;html=1;aspect=fixed;fillColor=#fff2cc;strokeColor=#d6b656;" parent="1" vertex="1">
          <mxGeometry x="374" y="80" width="80" height="80" as="geometry" />
        </mxCell>
        <mxCell id="7V-LlwSGDgWQLr9LBslq-3" style="edgeStyle=orthogonalEdgeStyle;rounded=0;orthogonalLoop=1;jettySize=auto;html=1;entryX=0.958;entryY=0.129;entryDx=0;entryDy=0;entryPerimeter=0;exitX=-0.001;exitY=0.63;exitDx=0;exitDy=0;exitPerimeter=0;fillColor=#fff2cc;strokeColor=#d6b656;" parent="1" source="o0TZDgzU0QpvcHvQ-COg-22" edge="1">
          <mxGeometry relative="1" as="geometry">
            <mxPoint x="540" y="119.7" as="sourcePoint" />
            <mxPoint x="450.6400000000001" y="120.02" as="targetPoint" />
          </mxGeometry>
        </mxCell>
        <mxCell id="7V-LlwSGDgWQLr9LBslq-8" value="Solar Power Input" style="edgeLabel;html=1;align=center;verticalAlign=middle;resizable=0;points=[];" parent="7V-LlwSGDgWQLr9LBslq-3" vertex="1" connectable="0">
          <mxGeometry x="0.0135" y="2" relative="1" as="geometry">
            <mxPoint y="-12" as="offset" />
          </mxGeometry>
        </mxCell>
        <mxCell id="21D40MH8CYop7TzDMXVV-1" value="Raspberry pi 5" style="whiteSpace=wrap;html=1;aspect=fixed;fillColor=#d5e8d4;strokeColor=#82b366;" vertex="1" parent="1">
          <mxGeometry x="350" y="345" width="80" height="80" as="geometry" />
        </mxCell>
        <mxCell id="21D40MH8CYop7TzDMXVV-2" value="" style="endArrow=classic;html=1;rounded=0;exitX=1;exitY=0.5;exitDx=0;exitDy=0;entryX=-0.01;entryY=0.67;entryDx=0;entryDy=0;entryPerimeter=0;fillColor=#d5e8d4;strokeColor=#82b366;" edge="1" parent="1" source="o0TZDgzU0QpvcHvQ-COg-1" target="21D40MH8CYop7TzDMXVV-1">
          <mxGeometry width="50" height="50" relative="1" as="geometry">
            <mxPoint x="360" y="430" as="sourcePoint" />
            <mxPoint x="410" y="380" as="targetPoint" />
          </mxGeometry>
        </mxCell>
        <mxCell id="21D40MH8CYop7TzDMXVV-3" value="Sensor Data" style="edgeLabel;html=1;align=center;verticalAlign=middle;resizable=0;points=[];" vertex="1" connectable="0" parent="21D40MH8CYop7TzDMXVV-2">
          <mxGeometry x="-0.0926" relative="1" as="geometry">
            <mxPoint x="4" y="-19" as="offset" />
          </mxGeometry>
        </mxCell>
      </root>
    </mxGraphModel>
  </diagram>
</mxfile>
